<?xml version="1.0" standalone="no"?>
<svg xmlns:xlink="http://www.w3.org/1999/xlink" id="wave" style="transform:rotate(180deg); transition: 0.3s" viewBox="0 0 1440 490" version="1.1" xmlns="http://www.w3.org/2000/svg"><defs><linearGradient id="sw-gradient-0" x1="0" x2="0" y1="1" y2="0"><stop stop-color="rgba(236, 254, 255, 1)" offset="0%"/><stop stop-color="rgba(236, 254, 255, 1)" offset="100%"/></linearGradient></defs><path style="transform:translate(0, 0px); opacity:1" fill="url(#sw-gradient-0)" d="M0,49L60,106.2C120,163,240,278,360,285.8C480,294,600,196,720,138.8C840,82,960,65,1080,122.5C1200,180,1320,310,1440,326.7C1560,343,1680,245,1800,196C1920,147,2040,147,2160,130.7C2280,114,2400,82,2520,57.2C2640,33,2760,16,2880,8.2C3000,0,3120,0,3240,49C3360,98,3480,196,3600,261.3C3720,327,3840,359,3960,310.3C4080,261,4200,131,4320,89.8C4440,49,4560,98,4680,98C4800,98,4920,49,5040,81.7C5160,114,5280,229,5400,294C5520,359,5640,376,5760,359.3C5880,343,6000,294,6120,294C6240,294,6360,343,6480,351.2C6600,359,6720,327,6840,277.7C6960,229,7080,163,7200,130.7C7320,98,7440,98,7560,138.8C7680,180,7800,261,7920,310.3C8040,359,8160,376,8280,359.3C8400,343,8520,294,8580,269.5L8640,245L8640,490L8580,490C8520,490,8400,490,8280,490C8160,490,8040,490,7920,490C7800,490,7680,490,7560,490C7440,490,7320,490,7200,490C7080,490,6960,490,6840,490C6720,490,6600,490,6480,490C6360,490,6240,490,6120,490C6000,490,5880,490,5760,490C5640,490,5520,490,5400,490C5280,490,5160,490,5040,490C4920,490,4800,490,4680,490C4560,490,4440,490,4320,490C4200,490,4080,490,3960,490C3840,490,3720,490,3600,490C3480,490,3360,490,3240,490C3120,490,3000,490,2880,490C2760,490,2640,490,2520,490C2400,490,2280,490,2160,490C2040,490,1920,490,1800,490C1680,490,1560,490,1440,490C1320,490,1200,490,1080,490C960,490,840,490,720,490C600,490,480,490,360,490C240,490,120,490,60,490L0,490Z"/></svg>